{
  "accessors": [
    {
      "bufferView": 2,
      "componentType": 5126,
      "count": 332,
      "max": [
        1.0,
        0.3340170085430145,
        0.5316259860992432
      ],
      "min": [
        0.5348420143127441,
        -0.3340170085430145,
        -0.46739301085472107
      ],
      "type": "VEC3"
    },
    {
      "bufferView": 2,
      "byteOffset": 3984,
      "componentType": 5126,
      "count": 332,
      "max": [
        0.9986050128936768,
        0.9966688752174377,
        0.8490809798240662
      ],
      "min": [
        -0.999704897403717,
        -0.987333357334137,
        -0.9151638746261597
      ],
      "type": "VEC3"
    },
    {
      "bufferView": 3,
      "componentType": 5126,
      "count": 332,
      "max": [
        0.9998576641082764,
        0.9637519121170044,
        0.9876864552497864,
        1.0
      ],
      "min": [
        -0.9996684789657593,
        -0.9168949127197266,
        -0.9862395524978638,
        -1.0
      ],
      "type": "VEC4"
    },
    {
      "bufferView": 1,
      "componentType": 5126,
      "count": 332,
      "max": [
        0.9959149956703186,
        0.9975699782371521
      ],
      "min": [
        0.0005000000237487257,
        0.005935229826718569
      ],
      "type": "VEC2"
    },
    {
      "bufferView": 0,
      "componentType": 5125,
      "count": 510,
      "type": "SCALAR"
    },
    {
      "bufferView": 2,
      "byteOffset": 7968,
      "componentType": 5126,
      "count": 289,
      "max": [
        -0.46496400237083435,
        0.31221699714660645,
        0.5361390113830566
      ],
      "min": [
        -1.0,
        -0.3315489888191223,
        -0.5361390113830566
      ],
      "type": "VEC3"
    },
    {
      "bufferView": 2,
      "byteOffset": 11436,
      "componentType": 5126,
      "count": 289,
      "max": [
        0.9882674217224121,
        0.9350893497467041,
        0.9467273354530334
      ],
      "min": [
        -0.9886024594306946,
        -0.993421733379364,
        -0.9413033723831177
      ],
      "type": "VEC3"
    },
    {
      "bufferView": 3,
      "byteOffset": 5312,
      "componentType": 5126,
      "count": 289,
      "max": [
        0.9997810125350952,
        0.9031782150268555,
        0.9755774140357971,
        1.0
      ],
      "min": [
        -0.9995307922363281,
        -0.9952181577682495,
        -0.9996813535690308,
        -1.0
      ],
      "type": "VEC4"
    },
    {
      "bufferView": 1,
      "byteOffset": 2656,
      "componentType": 5126,
      "count": 289,
      "max": [
        0.9994940161705017,
        0.9994750022888184
      ],
      "min": [
        0.0005000000237487257,
        0.0005000000237487257
      ],
      "type": "VEC2"
    },
    {
      "bufferView": 0,
      "byteOffset": 2040,
      "componentType": 5125,
      "count": 420,
      "type": "SCALAR"
    }
  ],
  "asset": {
    "extras": {
      "author": "Durk (https://sketchfab.com/durk)",
      "license": "CC-BY-4.0 (http://creativecommons.org/licenses/by/4.0/)",
      "source": "https://sketchfab.com/3d-models/papercraft-birds-d76fd20c3279499cac6a5db483f4feeb",
      "title": "Papercraft Birds"
    },
    "generator": "Sketchfab-12.67.0",
    "version": "2.0"
  },
  "bufferViews": [
    {
      "buffer": 0,
      "byteLength": 3720,
      "name": "floatBufferViews",
      "target": 34963
    },
    {
      "buffer": 0,
      "byteLength": 4968,
      "byteOffset": 3720,
      "byteStride": 8,
      "name": "floatBufferViews",
      "target": 34962
    },
    {
      "buffer": 0,
      "byteLength": 14904,
      "byteOffset": 8688,
      "byteStride": 12,
      "name": "floatBufferViews",
      "target": 34962
    },
    {
      "buffer": 0,
      "byteLength": 9936,
      "byteOffset": 23592,
      "byteStride": 16,
      "name": "floatBufferViews",
      "target": 34962
    }
  ],
  "buffers": [
    {
      "byteLength": 33528,
      "uri": "scene.bin"
    }
  ],
  "images": [
    {
      "uri": "textures/birds_baseColor.jpeg"
    },
    {
      "uri": "textures/birds_metallicRoughness.png"
    },
    {
      "uri": "textures/birds_normal.png"
    }
  ],
  "materials": [
    {
      "doubleSided": true,
      "name": "birds",
      "normalTexture": {
        "index": 2
      },
      "occlusionTexture": {
        "index": 1
      },
      "pbrMetallicRoughness": {
        "baseColorTexture": {
          "index": 0
        },
        "metallicRoughnessTexture": {
          "index": 1
        }
      }
    }
  ],
  "meshes": [
    {
      "name": "defaultMaterial",
      "primitives": [
        {
          "attributes": {
            "NORMAL": 1,
            "POSITION": 0,
            "TANGENT": 2,
            "TEXCOORD_0": 3
          },
          "indices": 4,
          "material": 0,
          "mode": 4
        }
      ]
    },
    {
      "name": "defaultMaterial",
      "primitives": [
        {
          "attributes": {
            "NORMAL": 6,
            "POSITION": 5,
            "TANGENT": 7,
            "TEXCOORD_0": 8
          },
          "indices": 9,
          "material": 0,
          "mode": 4
        }
      ]
    }
  ],
  "nodes": [
    {
      "children": [
        1
      ],
      "matrix": [
        0.22562816739082336,
        0.0,
        0.0,
        0.0,
        0.0,
        5.0099517288254206e-17,
        -0.22562816739082336,
        0.0,
        0.0,
        0.22562816739082336,
        5.0099517288254206e-17,
        0.0,
        0.0,
        0.0,
        0.0,
        1.0
      ],
      "name": "Sketchfab_model"
    },
    {
      "children": [
        2,
        4
      ],
      "matrix": [
        1.0,
        0.0,
        0.0,
        0.0,
        0.0,
        -4.371139006309477e-08,
        0.999999999999999,
        0.0,
        0.0,
        -0.999999999999999,
        -4.371139006309477e-08,
        0.0,
        0.0,
        0.0,
        0.0,
        1.0
      ],
      "name": "Collada visual scene group"
    },
    {
      "children": [
        3
      ],
      "name": "s_0053"
    },
    {
      "mesh": 0,
      "name": "defaultMaterial"
    },
    {
      "children": [
        5
      ],
      "name": "s_0039"
    },
    {
      "mesh": 1,
      "name": "defaultMaterial"
    }
  ],
  "samplers": [
    {
      "magFilter": 9729,
      "minFilter": 9987,
      "wrapS": 10497,
      "wrapT": 10497
    }
  ],
  "scene": 0,
  "scenes": [
    {
      "name": "Sketchfab_Scene",
      "nodes": [
        0
      ]
    }
  ],
  "textures": [
    {
      "sampler": 0,
      "source": 0
    },
    {
      "sampler": 0,
      "source": 1
    },
    {
      "sampler": 0,
      "source": 2
    }
  ]
}
