{
  "accessors": [
    {
      "bufferView": 2,
      "componentType": 5126,
      "count": 117,
      "max": [
        77.84375762939453,
        79.94023895263672,
        0.3223100006580353
      ],
      "min": [
        -2.2231600284576416,
        -1.3054100275039673,
        -36.5355110168457
      ],
      "type": "VEC3"
    },
    {
      "bufferView": 2,
      "byteOffset": 1404,
      "componentType": 5126,
      "count": 117,
      "max": [
        0.9934369921684265,
        0.9719504714012146,
        0.9564528465270996
      ],
      "min": [
        -0.9933564066886902,
        -0.838445782661438,
        -0.9315707087516785
      ],
      "type": "VEC3"
    },
    {
      "bufferView": 1,
      "componentType": 5126,
      "count": 117,
      "max": [
        1.0,
        1.0
      ],
      "min": [
        0.0,
        0.0
      ],
      "type": "VEC2"
    },
    {
      "bufferView": 1,
      "byteOffset": 936,
      "componentType": 5126,
      "count": 117,
      "max": [
        1.0,
        1.0
      ],
      "min": [
        0.0,
        0.0
      ],
      "type": "VEC2"
    },
    {
      "bufferView": 0,
      "componentType": 5125,
      "count": 312,
      "type": "SCALAR"
    },
    {
      "bufferView": 2,
      "byteOffset": 2808,
      "componentType": 5126,
      "count": 210,
      "max": [
        2.6124699115753174,
        1.8571399450302124,
        0.5252599716186523
      ],
      "min": [
        -0.31150999665260315,
        -1.2373000383377075,
        -3.071890115737915
      ],
      "type": "VEC3"
    },
    {
      "bufferView": 2,
      "byteOffset": 5328,
      "componentType": 5126,
      "count": 210,
      "max": [
        0.9631556868553162,
        0.5770516395568848,
        0.9299755096435547
      ],
      "min": [
        -0.18867579102516174,
        -0.8912149667739868,
        0.18662747740745544
      ],
      "type": "VEC3"
    },
    {
      "bufferView": 1,
      "byteOffset": 1872,
      "componentType": 5126,
      "count": 210,
      "max": [
        1.0,
        1.0
      ],
      "min": [
        0.0016499999910593033,
        0.0
      ],
      "type": "VEC2"
    },
    {
      "bufferView": 0,
      "byteOffset": 1248,
      "componentType": 5125,
      "count": 672,
      "type": "SCALAR"
    },
    {
      "bufferView": 2,
      "byteOffset": 7848,
      "componentType": 5126,
      "count": 630,
      "max": [
        1.3179500102996826,
        1.3754899501800537,
        0.2045699954032898
      ],
      "min": [
        -0.8392099738121033,
        -0.5104100108146667,
        -1.3723000288009644
      ],
      "type": "VEC3"
    },
    {
      "bufferView": 2,
      "byteOffset": 15408,
      "componentType": 5126,
      "count": 630,
      "max": [
        0.9963733553886414,
        0.9886305928230286,
        0.9960169792175293
      ],
      "min": [
        -0.9832969903945923,
        -0.994020938873291,
        -0.5742798447608948
      ],
      "type": "VEC3"
    },
    {
      "bufferView": 1,
      "byteOffset": 3552,
      "componentType": 5126,
      "count": 630,
      "max": [
        1.0,
        1.0
      ],
      "min": [
        0.0,
        0.0
      ],
      "type": "VEC2"
    },
    {
      "bufferView": 0,
      "byteOffset": 3936,
      "componentType": 5125,
      "count": 1872,
      "type": "SCALAR"
    },
    {
      "bufferView": 2,
      "byteOffset": 22968,
      "componentType": 5126,
      "count": 191,
      "max": [
        1.894860029220581,
        1.7265499830245972,
        2.042520046234131
      ],
      "min": [
        -1.894860029220581,
        -1.7265499830245972,
        -1.3811899423599243
      ],
      "type": "VEC3"
    },
    {
      "bufferView": 2,
      "byteOffset": 25260,
      "componentType": 5126,
      "count": 191,
      "max": [
        0.9974662661552429,
        0.9997531175613403,
        1.0
      ],
      "min": [
        -0.9974662661552429,
        -0.9997531175613403,
        -1.0
      ],
      "type": "VEC3"
    },
    {
      "bufferView": 1,
      "byteOffset": 8592,
      "componentType": 5126,
      "count": 191,
      "max": [
        0.9125900268554688,
        0.9988300204277039
      ],
      "min": [
        0.0,
        0.0
      ],
      "type": "VEC2"
    },
    {
      "bufferView": 0,
      "byteOffset": 11424,
      "componentType": 5125,
      "count": 948,
      "type": "SCALAR"
    },
    {
      "bufferView": 2,
      "byteOffset": 27552,
      "componentType": 5126,
      "count": 109,
      "max": [
        0.45311999320983887,
        0.722029983997345,
        0.40887999534606934
      ],
      "min": [
        -0.45311999320983887,
        -0.9466599822044373,
        -0.396589994430542
      ],
      "type": "VEC3"
    },
    {
      "bufferView": 2,
      "byteOffset": 28860,
      "componentType": 5126,
      "count": 109,
      "max": [
        0.9755382537841797,
        0.7378640174865723,
        0.9818298816680908
      ],
      "min": [
        -0.9755382537841797,
        -0.9692423939704895,
        -0.999984085559845
      ],
      "type": "VEC3"
    },
    {
      "bufferView": 1,
      "byteOffset": 10120,
      "componentType": 5126,
      "count": 109,
      "max": [
        0.8417099714279175,
        1.0
      ],
      "min": [
        0.7473300099372864,
        0.8769699931144714
      ],
      "type": "VEC2"
    },
    {
      "bufferView": 0,
      "byteOffset": 15216,
      "componentType": 5125,
      "count": 696,
      "type": "SCALAR"
    },
    {
      "bufferView": 2,
      "byteOffset": 30168,
      "componentType": 5126,
      "count": 226,
      "max": [
        0.3433000147342682,
        -0.42087000608444214,
        2.980959892272949
      ],
      "min": [
        -0.3433000147342682,
        -0.4754199981689453,
        2.926179885864258
      ],
      "type": "VEC3"
    },
    {
      "bufferView": 2,
      "byteOffset": 32880,
      "componentType": 5126,
      "count": 226,
      "max": [
        0.9917786717414856,
        0.9931561946868896,
        0.9980448484420776
      ],
      "min": [
        -0.9917786717414856,
        -0.9931561946868896,
        -0.9980407953262329
      ],
      "type": "VEC3"
    },
    {
      "bufferView": 1,
      "byteOffset": 10992,
      "componentType": 5126,
      "count": 226,
      "max": [
        1.0,
        1.0
      ],
      "min": [
        0.90038001537323,
        0.90038001537323
      ],
      "type": "VEC2"
    },
    {
      "bufferView": 0,
      "byteOffset": 18000,
      "componentType": 5125,
      "count": 1152,
      "type": "SCALAR"
    },
    {
      "bufferView": 2,
      "byteOffset": 35592,
      "componentType": 5126,
      "count": 164,
      "max": [
        4.04964017868042,
        0.5864199995994568,
        14.635820388793945
      ],
      "min": [
        -4.04964017868042,
        -2.545799970626831,
        7.513629913330078
      ],
      "type": "VEC3"
    },
    {
      "bufferView": 2,
      "byteOffset": 37560,
      "componentType": 5126,
      "count": 164,
      "max": [
        0.9998968243598938,
        0.9781971573829651,
        0.8877814412117004
      ],
      "min": [
        -0.9998968243598938,
        -0.9999403357505798,
        -0.9949909448623657
      ],
      "type": "VEC3"
    },
    {
      "bufferView": 1,
      "byteOffset": 12800,
      "componentType": 5126,
      "count": 164,
      "max": [
        0.9937499761581421,
        0.8416900038719177
      ],
      "min": [
        0.9174399971961975,
        0.49581998586654663
      ],
      "type": "VEC2"
    },
    {
      "bufferView": 0,
      "byteOffset": 22608,
      "componentType": 5125,
      "count": 936,
      "type": "SCALAR"
    },
    {
      "bufferView": 2,
      "byteOffset": 39528,
      "componentType": 5126,
      "count": 4,
      "max": [
        1.0895299911499023,
        1.1810799837112427,
        0.0
      ],
      "min": [
        -1.0895299911499023,
        -0.9979699850082397,
        0.0
      ],
      "type": "VEC3"
    },
    {
      "bufferView": 2,
      "byteOffset": 39576,
      "componentType": 5126,
      "count": 4,
      "max": [
        -0.0,
        0.0,
        1.0
      ],
      "min": [
        -0.0,
        0.0,
        1.0
      ],
      "type": "VEC3"
    },
    {
      "bufferView": 1,
      "byteOffset": 14112,
      "componentType": 5126,
      "count": 4,
      "max": [
        0.9998999834060669,
        0.9998999834060669
      ],
      "min": [
        9.999999747378752e-05,
        9.999999747378752e-05
      ],
      "type": "VEC2"
    },
    {
      "bufferView": 0,
      "byteOffset": 26352,
      "componentType": 5125,
      "count": 6,
      "type": "SCALAR"
    }
  ],
  "asset": {
    "extras": {
      "author": "peachyroyalty (https://sketchfab.com/peachyroyalty)",
      "license": "CC-BY-NC-4.0 (http://creativecommons.org/licenses/by-nc/4.0/)",
      "source": "https://sketchfab.com/3d-models/watercolor-bird-b2c20729dd4a4a89b3ee7cf90a795e46",
      "title": "Watercolor bird"
    },
    "generator": "Sketchfab-12.67.0",
    "version": "2.0"
  },
  "bufferViews": [
    {
      "buffer": 0,
      "byteLength": 26376,
      "name": "floatBufferViews",
      "target": 34963
    },
    {
      "buffer": 0,
      "byteLength": 14144,
      "byteOffset": 26376,
      "byteStride": 8,
      "name": "floatBufferViews",
      "target": 34962
    },
    {
      "buffer": 0,
      "byteLength": 39624,
      "byteOffset": 40520,
      "byteStride": 12,
      "name": "floatBufferViews",
      "target": 34962
    }
  ],
  "buffers": [
    {
      "byteLength": 80144,
      "uri": "scene.bin"
    }
  ],
  "extensionsUsed": [
    "KHR_materials_unlit"
  ],
  "images": [
    {
      "uri": "textures/Splatter_baseColor.png"
    },
    {
      "uri": "textures/Body_baseColor.png"
    },
    {
      "uri": "textures/Fluff_baseColor.png"
    },
    {
      "uri": "textures/tail_baseColor.png"
    },
    {
      "uri": "textures/Fluff_2_baseColor.png"
    }
  ],
  "materials": [
    {
      "alphaMode": "BLEND",
      "doubleSided": true,
      "extensions": {
        "KHR_materials_unlit": {}
      },
      "name": "Splatter",
      "pbrMetallicRoughness": {
        "baseColorTexture": {
          "index": 0
        },
        "metallicFactor": 0.0
      }
    },
    {
      "doubleSided": true,
      "extensions": {
        "KHR_materials_unlit": {}
      },
      "name": "Body",
      "pbrMetallicRoughness": {
        "baseColorTexture": {
          "index": 1
        },
        "metallicFactor": 0.0
      }
    },
    {
      "alphaMode": "BLEND",
      "doubleSided": true,
      "extensions": {
        "KHR_materials_unlit": {}
      },
      "name": "Fluff",
      "pbrMetallicRoughness": {
        "baseColorTexture": {
          "index": 2
        },
        "metallicFactor": 0.0
      }
    },
    {
      "alphaMode": "BLEND",
      "doubleSided": true,
      "extensions": {
        "KHR_materials_unlit": {}
      },
      "name": "tail",
      "pbrMetallicRoughness": {
        "baseColorTexture": {
          "index": 3
        },
        "metallicFactor": 0.0
      }
    },
    {
      "alphaMode": "BLEND",
      "doubleSided": true,
      "extensions": {
        "KHR_materials_unlit": {}
      },
      "name": "Fluff_2",
      "pbrMetallicRoughness": {
        "baseColorTexture": {
          "index": 4
        },
        "metallicFactor": 0.0
      }
    }
  ],
  "meshes": [
    {
      "name": "Fluff2_0",
      "primitives": [
        {
          "attributes": {
            "NORMAL": 1,
            "POSITION": 0,
            "TEXCOORD_0": 2,
            "TEXCOORD_1": 3
          },
          "indices": 4,
          "material": 4,
          "mode": 4
        }
      ]
    },
    {
      "name": "Tail_0",
      "primitives": [
        {
          "attributes": {
            "NORMAL": 6,
            "POSITION": 5,
            "TEXCOORD_0": 7
          },
          "indices": 8,
          "material": 3,
          "mode": 4
        }
      ]
    },
    {
      "name": "Fluff_0",
      "primitives": [
        {
          "attributes": {
            "NORMAL": 10,
            "POSITION": 9,
            "TEXCOORD_0": 11
          },
          "indices": 12,
          "material": 2,
          "mode": 4
        }
      ]
    },
    {
      "name": "Body_0",
      "primitives": [
        {
          "attributes": {
            "NORMAL": 14,
            "POSITION": 13,
            "TEXCOORD_0": 15
          },
          "indices": 16,
          "material": 1,
          "mode": 4
        }
      ]
    },
    {
      "name": "Beak_0",
      "primitives": [
        {
          "attributes": {
            "NORMAL": 18,
            "POSITION": 17,
            "TEXCOORD_0": 19
          },
          "indices": 20,
          "material": 1,
          "mode": 4
        }
      ]
    },
    {
      "name": "Eyes_0",
      "primitives": [
        {
          "attributes": {
            "NORMAL": 22,
            "POSITION": 21,
            "TEXCOORD_0": 23
          },
          "indices": 24,
          "material": 1,
          "mode": 4
        }
      ]
    },
    {
      "name": "Legs_0",
      "primitives": [
        {
          "attributes": {
            "NORMAL": 26,
            "POSITION": 25,
            "TEXCOORD_0": 27
          },
          "indices": 28,
          "material": 1,
          "mode": 4
        }
      ]
    },
    {
      "name": "Splatter_Plane_0",
      "primitives": [
        {
          "attributes": {
            "NORMAL": 30,
            "POSITION": 29,
            "TEXCOORD_0": 31
          },
          "indices": 32,
          "material": 0,
          "mode": 4
        }
      ]
    }
  ],
  "nodes": [
    {
      "children": [
        1
      ],
      "matrix": [
        0.043500032275915146,
        0.0,
        0.0,
        0.0,
        0.0,
        9.658947480931689e-18,
        -0.043500032275915146,
        0.0,
        0.0,
        0.043500032275915146,
        9.658947480931689e-18,
        0.0,
        3.2984001636505127,
        -0.15813453495502378,
        -4.2002129554748535,
        1.0
      ],
      "name": "Sketchfab_model"
    },
    {
      "children": [
        2,
        4,
        6,
        8,
        10,
        12,
        14,
        16
      ],
      "name": "Root"
    },
    {
      "children": [
        3
      ],
      "matrix": [
        1.17579,
        0.4318700000000001,
        0.78722,
        0.0,
        -0.6953900000000002,
        -1.17524,
        1.6833500000000001,
        0.0,
        1.11676,
        -1.70789,
        -0.7310400000000001,
        0.0,
        1.68713,
        -1.87365,
        1.80685,
        1.0
      ],
      "name": "Fluff2"
    },
    {
      "mesh": 0,
      "name": "Fluff2_0"
    },
    {
      "children": [
        5
      ],
      "matrix": [
        -0.8466400000000002,
        1.7721000000000002,
        0.33304000000000006,
        0.0,
        -1.5858899999999998,
        -0.8227400000000001,
        0.3461800000000001,
        0.0,
        0.35811000000000004,
        -0.09485000000000002,
        1.4150899999999997,
        0.0,
        2.46119,
        1.04648,
        3.8109699999999997,
        1.0
      ],
      "name": "Tail"
    },
    {
      "mesh": 1,
      "name": "Tail_0"
    },
    {
      "children": [
        7
      ],
      "matrix": [
        -0.95676,
        3.32231,
        0.7163200000000001,
        0.0,
        -3.3948399999999994,
        -0.96945,
        -0.038020000000000005,
        0.0,
        0.16091000000000005,
        -0.6990500000000002,
        3.45712,
        0.0,
        1.7724900000000001,
        -0.80383,
        5.45899,
        1.0
      ],
      "name": "Fluff"
    },
    {
      "mesh": 2,
      "name": "Fluff_0"
    },
    {
      "children": [
        9
      ],
      "matrix": [
        1.66569,
        0.0,
        0.0,
        0.0,
        0.0,
        1.66569,
        0.0,
        0.0,
        0.0,
        0.0,
        1.66569,
        0.0,
        -0.029950000000000008,
        -0.25126,
        3.2695100000000004,
        1.0
      ],
      "name": "Body"
    },
    {
      "mesh": 3,
      "name": "Body_0"
    },
    {
      "children": [
        11
      ],
      "matrix": [
        0.34875000000000006,
        0.0,
        0.0,
        0.0,
        0.0,
        0.34875000000000006,
        0.0,
        0.0,
        0.0,
        0.0,
        0.34875000000000006,
        0.0,
        -0.029950000000000008,
        -1.77392,
        5.7505299999999995,
        1.0
      ],
      "name": "Beak"
    },
    {
      "mesh": 4,
      "name": "Beak_0"
    },
    {
      "children": [
        13
      ],
      "matrix": [
        2.44896,
        0.0,
        0.0,
        0.0,
        0.0,
        2.44896,
        0.0,
        0.0,
        0.0,
        0.0,
        2.44896,
        0.0,
        -0.029950000000000008,
        -0.25126,
        -1.32229,
        1.0
      ],
      "name": "Eyes"
    },
    {
      "mesh": 5,
      "name": "Eyes_0"
    },
    {
      "children": [
        15
      ],
      "matrix": [
        0.17603000000000002,
        0.0,
        0.0,
        0.0,
        0.0,
        0.17603000000000002,
        0.0,
        0.0,
        0.0,
        0.0,
        0.17603000000000002,
        0.0,
        -0.029950000000000008,
        -0.25126,
        -1.32229,
        1.0
      ],
      "name": "Legs"
    },
    {
      "mesh": 6,
      "name": "Legs_0"
    },
    {
      "children": [
        17
      ],
      "matrix": [
        -5.06537,
        0.0,
        -0.0,
        0.0,
        0.0,
        0.0,
        -5.06537,
        0.0,
        0.0,
        -5.06537,
        -0.0,
        0.0,
        -0.029950000000000008,
        0.78524,
        4.54217,
        1.0
      ],
      "name": "Splatter_Plane"
    },
    {
      "mesh": 7,
      "name": "Splatter_Plane_0"
    }
  ],
  "samplers": [
    {
      "magFilter": 9729,
      "minFilter": 9987,
      "wrapS": 10497,
      "wrapT": 10497
    }
  ],
  "scene": 0,
  "scenes": [
    {
      "name": "Sketchfab_Scene",
      "nodes": [
        0
      ]
    }
  ],
  "textures": [
    {
      "sampler": 0,
      "source": 0
    },
    {
      "sampler": 0,
      "source": 1
    },
    {
      "sampler": 0,
      "source": 2
    },
    {
      "sampler": 0,
      "source": 3
    },
    {
      "sampler": 0,
      "source": 4
    }
  ]
}
